{"title":"Justified [1x01] [HDTV + H 264 + AC3 + Spanish]","uid":5578323,"size":431669109,"categoryP":"video","categoryS":"hd___tv_shows","magnet":"?xt=urn:btih:bb698c61e63bbaf44c9a4617c6cddf9c5648d259&amp;dn=Justified+%5B1x01%5D+%5BHDTV+%2B+H+264+%2B+AC3+%2B+Spanish%5D&amp;tr=udp%3A%2F%2Ftracker.openbittorrent.com%3A80&amp;tr=udp%3A%2F%2Fopen.demonii.com%3A1337&amp;tr=udp%3A%2F%2Ftracker.coppersurfer.tk%3A6969&amp;tr=udp%3A%2F%2Fexodus.desync.com%3A6969","seeders":0,"leechers":0,"uploader":"fleqii","files":1,"time":1274448876,"description":"I:TorrentsJustified [1x01] [HDTV + H.264 + AC3 + Spanish].mkv\n   General\n      Complete name : I:TorrentsJustified [1x01] [HDTV + H.264 + AC3 + Spanish].mkv\n      Format : Matroska\n      File size : 412 MiB\n      Duration : 48mn 59s\n      Overall bit rate : 1 175 Kbps\n      Encoded date : UTC 2010-05-20 22:44:28\n      Writing application : VirtualDubMod 1.5.10.2 (build 2540/release)\n      Writing library : libebml-0.7.5 &amp; libmatroska-0.7.7\n   Video #1\n      ID : 1\n      Format : AVC\n      Format/Info : Advanced Video Codec\n      Format profile : &lt;a class=&quot;__cf_email__&quot; href=&quot;/cdn-cgi/l/email-protection&quot; data-cfemail=&quot;064e6f616e464a352836&quot;&gt;[email&amp;#160;protected]&lt;/a&gt;&lt;script cf-hash='f9e31' type=&quot;text/javascript&quot;&gt;\n/* &lt;![CDATA[ */!function(){try{var t=&quot;currentScript&quot;in document?document.currentScript:function(){for(var t=document.getElementsByTagName(&quot;script&quot;),e=t.length;e--;)if(t[e].getAttribute(&quot;cf-hash&quot;))return t[e]}();if(t&amp;&amp;t.previousSibling){var e,r,n,i,c=t.previousSibling,a=c.getAttribute(&quot;data-cfemail&quot;);if(a){for(e=&quot;&quot;,r=parseInt(a.substr(0,2),16),n=2;a.length-n;n+=2)i=parseInt(a.substr(n,2),16)^r,e+=String.fromCharCode(i);e=document.createTextNode(e),c.parentNode.replaceChild(e,c)}}}catch(u){}}();/* ]]&gt; */&lt;/script&gt;\n      Format settings, CABAC : Yes\n      Format settings, ReFrames : 1 frame\n      Codec ID : H264\n      Duration : 48mn 59s\n      Bit rate : 703 Kbps\n      Nominal bit rate : 733 Kbps\n      Width : 624 pixels\n      Height : 352 pixels\n      Display aspect ratio : 16:9\n      Original display aspect ratio : 16:9\n      Frame rate : 25.000 fps\n      Resolution : 24 bits\n      Colorimetry : 4:2:0\n      Scan type : Progressive\n      Bits/(Pixel*Frame) : 0.128\n      Stream size : 246 MiB (60%)\n      Writing library : x264 core 68 r1195bm 5d75a9b\n      Encoding settings : cabac=1 / ref=1 / deblock=1:0:0 / analyse=0x3:0x33 / me=umh / subme=7 / psy_rd=0.0:0.0 / mixed_ref=0 / me_range=16 / chroma_me=1 / trellis=1 / 8x8dct=1 / cqm=0 / deadzone=21,11 / chroma_qp_offset=0 / threads=1 / thread_queue=1 / nr=0 / decimate=1 / mbaff=0 / bframes=0 / keyint=250 / keyint_min=25 / scenecut=40 / rc=abr / bitrate=733 / ratetol=1.0 / qcomp=0.60 / qpmin=10 / qpmax=51 / qpstep=4 / ip_ratio=1.40 / aq=2:1.00\n   Audio #2\n      ID : 2\n      Format : AC-3\n      Format/Info : Audio Coding 3\n      Codec ID : A_AC3\n      Duration : 48mn 59s\n      Bit rate mode : Constant\n      Bit rate : 448 Kbps\n      Channel(s) : 2 channels\n      Channel positions : L R\n      Sampling rate : 48.0 KHz\n      Stream size : 157 MiB (38%)","torrent":{"xt":"urn:btih:bb698c61e63bbaf44c9a4617c6cddf9c5648d259","amp;dn":"Justified+%5B1x01%5D+%5BHDTV+%2B+H+264+%2B+AC3+%2B+Spanish%5D","amp;tr":["udp%3A%2F%2Ftracker.openbittorrent.com%3A80","udp%3A%2F%2Fopen.demonii.com%3A1337","udp%3A%2F%2Ftracker.coppersurfer.tk%3A6969","udp%3A%2F%2Fexodus.desync.com%3A6969"],"infoHash":"bb698c61e63bbaf44c9a4617c6cddf9c5648d259","infoHashBuffer":{"type":"Buffer","data":[187,105,140,97,230,59,186,244,76,154,70,23,198,205,223,156,86,72,210,89]},"announce":[],"urlList":[]}}